<svg width="10" height="10" viewBox="0 0 10 10" fill="none" xmlns="http://www.w3.org/2000/svg">
<path d="M5.2066 8.44091L7.57098 9.93866C7.87323 10.1299 8.24823 9.84528 8.1586 9.49241L7.47572 6.80553C7.45644 6.73069 7.45866 6.65192 7.48214 6.57829C7.50563 6.50465 7.54942 6.43914 7.60847 6.38928L9.72872 4.62491C10.007 4.39316 9.86372 3.93078 9.5056 3.90753L6.73697 3.72753C6.66243 3.72224 6.59093 3.69589 6.53078 3.65154C6.47063 3.6072 6.42431 3.54668 6.39722 3.47703L5.36448 0.876781C5.33635 0.802883 5.28644 0.739278 5.22134 0.6944C5.15624 0.649521 5.07904 0.625488 4.99998 0.625488C4.92091 0.625488 4.84371 0.649521 4.77861 0.6944C4.71351 0.739278 4.6636 0.802883 4.63548 0.876781L3.60273 3.47703C3.57569 3.54675 3.5294 3.60734 3.46925 3.65176C3.4091 3.69618 3.33756 3.72259 3.26298 3.72791L0.494351 3.90791C0.136601 3.93078 -0.00739908 4.39316 0.271226 4.62491L2.39148 6.38966C2.45047 6.43948 2.49421 6.50493 2.51769 6.57849C2.54118 6.65205 2.54344 6.73074 2.52423 6.80553L1.89123 9.29741C1.7836 9.72078 2.23398 10.0624 2.59623 9.83253L4.79373 8.44091C4.85549 8.40164 4.92716 8.38078 5.00035 8.38078C5.07354 8.38078 5.14521 8.40164 5.20697 8.44091H5.2066Z" fill="#CCCCCC"/>
</svg>
